<svg width="1211" height="190" viewBox="0 0 1211 190" fill="none" xmlns="http://www.w3.org/2000/svg">
<path d="M948.109 66.4212C951.56 63.4735 944.136 62.9822 925.33 62.9822C894.637 62.9822 961.914 60.0345 984.003 60.0345C1006.09 60.0345 1025.31 60.3238 1054.41 61.9996C1070.78 62.9423 1003.51 63.6759 1012.91 67.3425C1020.3 70.222 1037.15 69.8603 1030.25 71.3342C1023.35 72.808 948.065 72.3168 936.697 71.3342C925.33 70.3516 944.657 69.369 948.109 66.4212Z" fill="url(#paint0_linear)"/>
<path d="M783.786 12.308C773.432 9.36029 757.201 7.94771 813.619 7.9477C905.697 7.9477 703.867 5 637.6 5C571.333 5 513.663 5.28931 426.375 6.96513C377.274 7.90779 579.084 8.64145 550.875 12.308C528.722 15.1875 478.146 14.8258 498.854 16.2997C519.562 17.7735 745.413 17.2823 779.516 16.2997C813.619 15.3171 794.14 15.2558 783.786 12.308Z" fill="url(#paint1_linear)"/>
<path d="M524.718 55.1126C514.217 52.1649 497.756 50.7523 554.975 50.7523C648.358 50.7523 443.665 47.8046 376.458 47.8046C309.251 47.8046 250.764 48.0939 162.237 49.7697C112.44 50.7124 317.112 51.446 288.504 55.1126C266.036 57.9921 214.742 57.6304 235.744 59.1043C256.746 60.5781 485.801 60.0869 520.388 59.1043C554.975 58.1217 535.218 58.0604 524.718 55.1126Z" fill="url(#paint2_linear)"/>
<path d="M70.1855 30.6529C83.7706 27.7051 105.065 26.2925 31.0418 26.2925C-89.7692 26.2925 175.043 23.3448 261.989 23.3448C348.936 23.3448 424.601 23.6341 539.129 25.31C603.552 26.2526 338.765 26.9863 375.777 30.6529C404.843 33.5323 471.203 33.1706 444.032 34.6445C416.862 36.1184 120.533 35.6271 75.7872 34.6445C31.0418 33.6619 56.6005 33.6006 70.1855 30.6529Z" fill="url(#paint3_linear)"/>
<path d="M484.551 94.8598C244.649 89.4283 457.59 90.4994 514.808 90.4994C608.192 90.4994 403.499 87.5517 336.292 87.5517C269.085 87.5517 265.103 87.9142 176.576 89.59C126.779 90.5327 235.874 92.2917 206.267 94.8598C160.246 98.8514 121.43 98.8173 142.432 100.291C163.434 101.765 353.152 100.291 388.865 100.291C424.577 100.291 724.454 100.291 484.551 94.8598Z" fill="url(#paint4_linear)"/>
<path d="M455.076 76.5274C465.577 74.8079 482.037 73.9839 424.819 73.9839C331.436 73.9839 536.128 72.2644 603.335 72.2644C670.542 72.2644 729.03 72.4331 817.557 73.4107C867.354 73.9606 662.681 74.3885 691.29 76.5274C713.757 78.2071 765.052 77.9961 744.05 78.8558C723.048 79.7156 493.993 79.429 459.406 78.8558C424.819 78.2827 444.575 78.2469 455.076 76.5274Z" fill="url(#paint5_linear)"/>
<path d="M238.35 14.769C252.303 13.2951 274.173 12.5888 198.149 12.5888C74.0726 12.5888 346.042 11.1149 435.338 11.1149C524.634 11.1149 602.345 11.2596 719.968 12.0975C786.132 12.5688 514.189 12.9357 552.201 14.769C582.053 16.2087 650.206 16.0279 622.301 16.7648C594.396 17.5017 290.058 17.2561 244.103 16.7648C198.149 16.2735 224.398 16.2428 238.35 14.769Z" fill="url(#paint6_linear)"/>
<path d="M892.322 36.7678C883.436 33.8201 869.508 32.4075 917.924 32.4075C996.941 32.4075 823.739 29.4598 766.872 29.4598C710.004 29.4598 660.515 29.7491 585.607 31.4249C543.471 32.3676 716.656 33.1012 692.448 36.7678C673.438 39.6473 630.035 39.2856 647.806 40.7594C665.577 42.2333 859.392 41.742 888.658 40.7594C917.924 39.7769 901.207 39.7155 892.322 36.7678Z" fill="url(#paint7_linear)"/>
<path d="M817.864 157.028C826.749 154.081 840.677 152.668 792.262 152.668C713.245 152.668 886.446 149.72 943.314 149.72C1000.18 149.72 1049.67 150.01 1124.58 151.685C1166.71 152.628 993.53 153.362 1017.74 157.028C1036.75 159.908 1080.15 159.546 1062.38 161.02C1044.61 162.494 850.794 162.003 821.528 161.02C792.262 160.037 808.979 159.976 817.864 157.028Z" fill="url(#paint8_linear)"/>
<path d="M1235.08 12.308C1224.73 9.36029 1208.5 7.94771 1264.92 7.9477C1357 7.9477 1155.17 5 1088.9 5C1022.63 5 964.962 5.28931 877.674 6.96513C828.573 7.90779 1030.38 8.64145 1002.17 12.308C980.021 15.1875 929.444 14.8258 950.153 16.2997C970.861 17.7735 1196.71 17.2823 1230.82 16.2997C1264.92 15.3171 1245.44 15.2558 1235.08 12.308Z" fill="url(#paint9_linear)"/>
<path d="M1042.95 107.09C1053.45 104.142 1069.91 102.729 1012.7 102.729C919.312 102.729 1124 99.7816 1191.21 99.7816C1258.42 99.7816 1316.91 100.071 1405.43 101.747C1455.23 102.689 1250.56 103.423 1279.17 107.09C1301.63 109.969 1352.93 109.607 1331.93 111.081C1310.92 112.555 1081.87 112.064 1047.28 111.081C1012.7 110.099 1032.45 110.037 1042.95 107.09Z" fill="url(#paint10_linear)"/>
<g filter="url(#filter0_f)">
<path d="M697.007 38.7036C694.032 34.7049 829.351 36.9898 827.864 24.4224C827.35 20.0736 722.286 14.7112 769.871 14.7112C817.455 14.7112 711.877 5.00001 711.877 5.00001L1037.53 5C1037.53 5 960.209 13.5687 1053.89 16.9962C1147.57 20.4237 1010.77 21.5662 951.287 28.4212C891.806 35.2762 1053.89 44.4161 1053.89 48.4148C1053.89 52.4136 949.8 57.5548 951.287 68.9797C952.774 80.4047 1131.22 76.9771 1131.22 83.8321C1131.22 90.6871 901.852 86.4789 923.034 108.967C931.421 117.872 1010.77 118.678 1010.77 123.819C1010.77 128.961 909.988 128.506 902.215 144.384C894.089 160.985 1080.66 170.09 1019.69 170.09C958.722 170.09 854.631 184.372 854.631 184.372C854.631 184.372 830.838 181.515 787.715 170.09C744.591 158.666 655.37 167.805 655.37 162.664C655.37 157.523 776.679 159.153 787.715 144.384C802.526 124.562 655.37 133.531 655.37 127.247C655.37 120.963 751.474 126.868 762.435 116.393C782.58 97.1435 622.656 106.682 624.143 98.6846C625.63 90.6871 859.087 104.078 805.559 83.8321C763.765 68.0241 600.35 73.5497 612.246 66.6947C624.143 59.8397 805.559 64.981 805.559 53.556C805.559 42.1311 699.981 42.7024 697.007 38.7036Z" fill="url(#paint11_linear)"/>
</g>
<defs>
<filter id="filter0_f" x="606.629" y="0" width="529.588" height="189.372" filterUnits="userSpaceOnUse" color-interpolation-filters="sRGB">
<feFlood flood-opacity="0" result="BackgroundImageFix"/>
<feBlend mode="normal" in="SourceGraphic" in2="BackgroundImageFix" result="shape"/>
<feGaussianBlur stdDeviation="2.5" result="effect1_foregroundBlur"/>
</filter>
<linearGradient id="paint0_linear" x1="822.433" y1="66.1494" x2="1000.58" y2="66.1494" gradientUnits="userSpaceOnUse">
<stop stop-color="#3A8DBC"/>
<stop offset="0.557292" stop-color="#4490BB"/>
<stop offset="1" stop-color="#549CC5"/>
</linearGradient>
<linearGradient id="paint1_linear" x1="1122.31" y1="11.1149" x2="587.876" y2="11.115" gradientUnits="userSpaceOnUse">
<stop stop-color="#3A8DBC"/>
<stop offset="0.557292" stop-color="#4490BB"/>
<stop offset="1" stop-color="#549CC5"/>
</linearGradient>
<linearGradient id="paint2_linear" x1="-43.0515" y1="53.9195" x2="403.794" y2="53.9195" gradientUnits="userSpaceOnUse">
<stop stop-color="#1D7BB0"/>
<stop offset="0.557292" stop-color="#1F81B9"/>
<stop offset="1" stop-color="#2C86BA"/>
</linearGradient>
<linearGradient id="paint3_linear" x1="32.6598" y1="29.4598" x2="296.907" y2="29.4598" gradientUnits="userSpaceOnUse">
<stop stop-color="#1D7BB0"/>
<stop offset="0.557292" stop-color="#1F81B9"/>
<stop offset="1" stop-color="#2C86BA"/>
</linearGradient>
<linearGradient id="paint4_linear" x1="328.082" y1="87.5517" x2="386.591" y2="164.159" gradientUnits="userSpaceOnUse">
<stop offset="0.00373588" stop-color="#3B89B7"/>
<stop offset="0.557292" stop-color="#4490BB"/>
<stop offset="1" stop-color="#549CC5"/>
</linearGradient>
<linearGradient id="paint5_linear" x1="559.67" y1="74.3027" x2="722.863" y2="115.288" gradientUnits="userSpaceOnUse">
<stop stop-color="#3A8DBC"/>
<stop offset="0.557292" stop-color="#4490BB"/>
<stop offset="1" stop-color="#549CC5"/>
</linearGradient>
<linearGradient id="paint6_linear" x1="369.649" y1="11.1149" x2="711.423" y2="97.1611" gradientUnits="userSpaceOnUse">
<stop stop-color="#3A8DBC"/>
<stop offset="0.557292" stop-color="#4490BB"/>
<stop offset="1" stop-color="#549CC5"/>
</linearGradient>
<linearGradient id="paint7_linear" x1="760.082" y1="34.046" x2="882.107" y2="46.895" gradientUnits="userSpaceOnUse">
<stop stop-color="#4696C2"/>
<stop offset="0.557292" stop-color="#6EA5C5"/>
<stop offset="1" stop-color="#529AC3"/>
</linearGradient>
<linearGradient id="paint8_linear" x1="817.979" y1="155.835" x2="1166.85" y2="155.835" gradientUnits="userSpaceOnUse">
<stop stop-color="#6AAACF"/>
<stop offset="0.557292" stop-color="#4490BB"/>
<stop offset="1" stop-color="#3B92BF"/>
</linearGradient>
<linearGradient id="paint9_linear" x1="1573.61" y1="11.1149" x2="1039.18" y2="11.115" gradientUnits="userSpaceOnUse">
<stop stop-color="#3A8DBC"/>
<stop offset="0.557292" stop-color="#4490BB"/>
<stop offset="1" stop-color="#549CC5"/>
</linearGradient>
<linearGradient id="paint10_linear" x1="699.627" y1="105.897" x2="1241.64" y2="105.897" gradientUnits="userSpaceOnUse">
<stop stop-color="#3A8DBC"/>
<stop offset="0.557292" stop-color="#4490BB"/>
<stop offset="1" stop-color="#549CC5"/>
</linearGradient>
<linearGradient id="paint11_linear" x1="858.348" y1="4.08689" x2="858.348" y2="196.939" gradientUnits="userSpaceOnUse">
<stop offset="0.0298355" stop-color="white"/>
<stop offset="0.564135" stop-color="#308ABD"/>
<stop offset="0.965222" stop-color="#4CA0C3"/>
</linearGradient>
</defs>
</svg>
