<svg width="100" height="73" viewBox="0 0 100 73" fill="none" xmlns="http://www.w3.org/2000/svg" xmlns:xlink="http://www.w3.org/1999/xlink">
<path d="M39.7808 70.7113C46.2185 71.3697 89.6937 62.9038 89.6937 62.9038C89.6937 62.9038 91.6536 63.2807 93.3647 61.7806C95.5866 58.1915 96.8567 49.7413 95.8408 41.8875C94.9101 34.6927 91.557 26.4377 88.5436 23.3408C86.5357 22.2586 85.0959 23.4044 85.0959 23.4044C85.0959 23.4044 40.4255 27.4141 34.3653 29.8454C30.8881 31.2403 28.2739 35.524 26.1934 39.2268C24.648 41.9774 23.397 44.4076 22.3055 45.0949C19.7447 46.7075 9.26797 46.8305 8.31701 46.9486C7.36605 47.0668 5.95756 50.7629 6.52216 54.5227C7.08676 58.2825 8.64988 61.4532 10.224 61.3388C11.7981 61.2244 21.2253 58.6922 24.2801 59.9959C27.335 61.2995 33.343 70.053 39.7808 70.7113Z" fill="#98878B"/>
<mask id="mask0" mask-type="alpha" maskUnits="userSpaceOnUse" x="6" y="22" width="91" height="49">
<path d="M39.7808 70.7113C46.2185 71.3697 89.6937 62.9037 89.6937 62.9037C89.6937 62.9037 91.6536 63.2807 93.3647 61.7806C95.5866 58.1915 96.8566 49.7413 95.8408 41.8875C94.9101 34.6927 91.557 26.4377 88.5436 23.3408C86.5357 22.2586 85.0959 23.4044 85.0959 23.4044C85.0959 23.4044 40.4255 27.4141 34.3653 29.8454C30.8881 31.2403 28.2739 35.524 26.1934 39.2268C24.6479 41.9774 23.397 44.4075 22.3055 45.0949C19.7447 46.7075 9.26796 46.8305 8.317 46.9486C7.36604 47.0668 5.95755 50.7628 6.52215 54.5227C7.08676 58.2825 8.64987 61.4531 10.224 61.3387C11.7981 61.2243 21.2253 58.6922 24.2801 59.9958C27.335 61.2994 33.343 70.0529 39.7808 70.7113Z" fill="#98878B" fill-opacity="0.1"/>
</mask>
<g mask="url(#mask0)">
<rect x="7.88574" y="-18.0782" width="138.848" height="138.848" fill="url(#pattern0)"/>
</g>
<path d="M4.15587 61.1879L9.47737 59.9291C9.47737 59.9291 10.0375 57.5298 9.58333 54.1022C9.12912 50.6747 7.96334 48.5041 7.96334 48.5041L2.53909 48.9876L4.15587 61.1879Z" fill="#98878B"/>
<path d="M4.15587 61.1879L9.47737 59.9291C9.47737 59.9291 10.0375 57.5298 9.58333 54.1022L3.84813 54.8623C4.42852 59.2419 4.15587 61.1879 4.15587 61.1879Z" fill="#98878B"/>
<path d="M0.865552 55.5758C1.48739 60.2682 3.57164 61.5836 4.15584 61.1879C4.74004 60.7922 5.38834 58.478 4.93233 55.0369C4.47631 51.5958 3.51901 49.176 2.53906 48.9876C1.55912 48.7991 0.243715 50.8834 0.865552 55.5758Z" fill="#98878B"/>
<mask id="mask1" mask-type="alpha" maskUnits="userSpaceOnUse" x="0" y="48" width="10" height="14">
<path d="M4.15571 61.1879L9.47721 59.9291C9.47721 59.9291 10.0374 57.5298 9.58317 54.1022C9.12896 50.6747 7.96318 48.5041 7.96318 48.5041L2.53893 48.9876L4.15571 61.1879Z" fill="#98878B" fill-opacity="0.1"/>
<path d="M4.15571 61.1879L9.47721 59.9291C9.47721 59.9291 10.0374 57.5298 9.58317 54.1022L3.84797 54.8623C4.42836 59.2419 4.15571 61.1879 4.15571 61.1879Z" fill="#98878B" fill-opacity="0.1"/>
<path d="M0.865392 55.5758C1.48723 60.2683 3.57148 61.5837 4.15568 61.1879C4.73988 60.7922 5.38818 58.478 4.93217 55.0369C4.47615 51.5958 3.51885 49.1761 2.5389 48.9876C1.55896 48.7991 0.243555 50.8834 0.865392 55.5758Z" fill="#98878B" fill-opacity="0.1"/>
</mask>
<g mask="url(#mask1)">
<rect x="-40.8953" y="4.96928" width="138.848" height="138.848" fill="url(#pattern1)"/>
</g>
<path d="M8.62834 34.3293C9.19294 38.0891 10.7561 41.2598 12.3301 41.1454C13.4217 41.0661 18.4058 39.8087 22.2972 39.4907C22.4321 38.6446 21.7104 33.3288 18.0161 31.9196C14.3218 30.5103 8.06374 30.5695 8.62834 34.3293Z" fill="#36725B" fill-opacity="0.75"/>
<path d="M19.1718 37.5254L12.4771 39.8526C12.4771 39.8526 12.7531 35.9167 12.4835 33.8036C12.2 31.5806 10.9018 27.9651 10.9018 27.9651L17.934 28.1852C18.5755 28.2215 19.3936 29.5907 19.8644 33.1439C20.3353 36.697 19.1718 37.5254 19.1718 37.5254Z" fill="#E7BF9D"/>
<path d="M19.1718 37.5254L12.4771 39.8526L12.4835 33.8036L13.8792 33.6187C13.8792 33.6187 19.1973 32.9139 19.8644 33.1439C20.3353 36.697 19.1718 37.5254 19.1718 37.5254Z" fill="#AF9783"/>
<path d="M41.8869 50.5179C48.3247 51.1763 91.7998 42.7104 91.7998 42.7104C91.7998 42.7104 93.7597 43.0873 95.4709 41.5873C97.6928 37.9981 98.9628 29.5479 97.9469 21.6941C97.0163 14.4993 93.6631 6.24434 90.6498 3.14745C88.6419 2.06522 87.2021 3.211 87.2021 3.211C87.2021 3.211 42.5316 7.22075 36.4714 9.65198C30.4112 12.0832 26.9724 23.2889 24.4116 24.9015C21.8508 26.5141 11.3741 26.6371 10.4232 26.7552C9.4722 26.8734 8.06371 30.5695 8.62831 34.3293C9.19291 38.0891 10.756 41.2598 12.3301 41.1454C13.9042 41.031 23.3314 38.4989 26.3863 39.8025C29.4412 41.1061 35.4492 49.8596 41.8869 50.5179Z" fill="#2EB481" fill-opacity="0.65"/>
<path d="M90.4497 3.65205C89.1887 2.70367 87.294 3.64789 87.294 3.64789C87.294 3.64789 80.2344 8.37214 82.2186 23.8374C84.2028 39.3026 91.6616 42.1524 91.6616 42.1524C91.6616 42.1524 93.2171 42.409 94.818 41.5254C97.0399 37.9363 98.3849 29.1864 97.369 21.3326C96.4383 14.1378 93.463 6.74894 90.4497 3.65205Z" fill="#259369" fill-opacity="0.5"/>
<path d="M39.7422 49.3632L91.58 37.7462C91.58 37.7462 91.5295 36.8471 90.9163 32.7723C90.303 28.6976 88.7283 28.3767 88.7283 28.3767L38.679 47.2079C38.679 47.2079 39.264 47.7794 39.6748 48.1028C40.159 48.4839 39.7422 49.3632 39.7422 49.3632Z" fill="#B6AB83"/>
<path d="M40.9743 48.2516L91.9717 37.4429C91.9717 37.4429 92.8212 36.2786 92.2079 32.2039C91.5947 28.1291 90.0199 27.8082 90.0199 27.8082L38.8901 37.9632L40.9743 48.2516Z" fill="#F3E4AF"/>
<path d="M40.9889 48.2498L91.9718 37.4429C91.9718 37.4429 92.8212 36.2787 92.208 32.2039C80.1903 34.835 47.6982 41.3289 39.9322 43.1075L40.9889 48.2498Z" fill="#D8CB9F"/>
<path d="M37.0541 43.8292C37.8557 47.7863 40.3017 48.6639 40.9746 48.253C41.6474 47.842 42.3627 45.7747 41.7749 42.8728C41.187 39.971 40.0332 38.0076 38.8903 37.9645C37.7475 37.9214 36.2524 39.8721 37.0541 43.8292Z" fill="#CEC399"/>
<path d="M40.9522 48.3506C40.9522 48.3506 38.0488 47.2416 37.4812 42.5317C36.9136 37.8219 40.4886 38.4121 41.0148 43.6071C41.5083 48.4788 38.8932 45.3005 38.7585 42.7795C38.61 39.9986 39.9683 41.7643 40.0526 43.3424C40.0673 43.6176 40.0842 43.9327 40.0695 43.6576" stroke="#B6AB83" stroke-width="0.75"/>
<path d="M36.4715 9.65199C30.4113 12.0832 37.3454 25.7341 51.6299 25.4327C57.6266 25.3062 92.9616 20.5921 97.5314 19.0316C96.335 12.4487 93.4023 5.9763 90.6498 3.14746C88.6419 2.06523 87.2021 3.21101 87.2021 3.21101C87.2021 3.21101 42.5317 7.22076 36.4715 9.65199Z" fill="#2EB481" fill-opacity="0.5"/>
<path d="M41.887 50.518C48.3248 51.1764 91.7999 42.7104 91.7999 42.7104C91.7999 42.7104 93.7598 43.0874 95.471 41.5874C97.6928 37.9982 98.9197 29.034 97.947 21.6942C83.851 23.5622 60.142 27.2112 48.8709 33.4382C37.5999 39.6651 35.4493 49.8596 41.887 50.518Z" fill="#2EB481" fill-opacity="0.5"/>
<path d="M8.56117 34.3235C9.12577 38.0833 10.756 41.2598 12.3301 41.1454C12.3301 41.1454 13.6655 39.2116 12.9408 33.7431C12.2161 28.2746 10.4231 26.7553 10.4231 26.7553C9.47218 26.8734 7.99657 30.5637 8.56117 34.3235Z" fill="#59B391"/>
<path d="M6.26202 40.9946L11.5835 39.7358C11.5835 39.7358 12.1437 37.3364 11.6895 33.9089C11.2353 30.4814 10.0695 28.3107 10.0695 28.3107L4.64524 28.7943L6.26202 40.9946Z" fill="#E7BF9D"/>
<path d="M6.26202 40.9946L11.5835 39.7358C11.5835 39.7358 12.1437 37.3364 11.6895 33.9089L5.95428 34.6689C6.53466 39.0485 6.26202 40.9946 6.26202 40.9946Z" fill="#AF9783"/>
<path d="M2.9717 35.3825C3.59354 40.0749 5.67779 41.3903 6.26199 40.9946C6.84619 40.5988 7.49449 38.2847 7.03848 34.8435C6.58246 31.4024 5.62516 28.9827 4.64521 28.7942C3.66527 28.6058 2.34986 30.69 2.9717 35.3825Z" fill="#A08B7A"/>
<ellipse cx="31.0876" cy="21.938" rx="2.90739" ry="1.57782" transform="rotate(-67.5953 31.0876 21.938)" fill="white" fill-opacity="0.79"/>
<path d="M94.2878 8.63851C87.1141 10.2137 36.4195 17.2092 36.2458 15.7572C36.0721 14.3052 91.4451 6.84986 92.4742 6.72761C93.4928 6.60661 93.8497 7.51883 94.2746 8.6047L94.2878 8.63851Z" fill="white" fill-opacity="0.79"/>
<path d="M19.0353 26.8873C18.9524 26.2616 11.1787 27.6523 11.2146 27.9236C11.2506 28.195 19.1183 27.5129 19.0353 26.8873Z" fill="white" fill-opacity="0.79"/>
<mask id="mask2" mask-type="alpha" maskUnits="userSpaceOnUse" x="7" y="0" width="93" height="53">
<path d="M41.8869 50.5179C48.3247 51.1763 91.7998 42.7103 91.7998 42.7103C91.7998 42.7103 93.7597 43.0872 95.4709 41.5872C97.6927 37.9981 98.9628 29.5479 97.9469 21.6941C97.0163 14.4993 93.6631 6.24431 90.6498 3.14742C88.6418 2.06519 87.2021 3.21097 87.2021 3.21097C87.2021 3.21097 42.5316 7.22071 36.4714 9.65195C30.4112 12.0832 26.9724 23.2889 24.4116 24.9015C21.8508 26.5141 11.3741 26.6371 10.4231 26.7552C9.47219 26.8734 8.0637 30.5694 8.6283 34.3292C9.1929 38.089 10.756 41.2597 12.3301 41.1453C13.9042 41.0309 23.3314 38.4988 26.3863 39.8024C29.4411 41.106 35.4492 49.8595 41.8869 50.5179Z" fill="#2EB481" fill-opacity="0.1"/>
</mask>
<g mask="url(#mask2)">
<rect x="-13.29" y="-69.8806" width="138.848" height="138.848" fill="url(#pattern2)"/>
</g>
<defs>
<pattern id="pattern0" patternContentUnits="objectBoundingBox" width="1.58447" height="1.58447">
<use xlink:href="#image0" transform="scale(0.00720212)"/>
</pattern>
<pattern id="pattern1" patternContentUnits="objectBoundingBox" width="1.58447" height="1.58447">
<use xlink:href="#image1" transform="scale(0.00720212)"/>
</pattern>
<pattern id="pattern2" patternContentUnits="objectBoundingBox" width="1.58447" height="1.58447">
<use xlink:href="#image2" transform="scale(0.00720212)"/>
</pattern>
</defs>
</svg>
