<svg width="24" height="30" viewBox="0 0 24 30" fill="none" xmlns="http://www.w3.org/2000/svg">
<path d="M0.813702 28.4946C-3.89374 35.5557 13.3608 3.70636 13.3608 3.70636L6.32221 19.3138C5.57746 21.1306 6.00693 20.8315 4.79207 22.374C3.34596 24.2102 3.2619 26.3524 3.26192 26.9645C3.26193 27.5765 1.42576 27.5765 0.813702 28.4946Z" fill="white"/>
<path d="M11.2186 18.0896C7.85232 22.374 5.61296 21.3879 4.5904 22.646C3.6723 22.034 7.24028 16.8655 7.24028 16.8655L13.0548 4.31839C13.0548 4.31839 13.6669 2.17621 16.1151 0.952091C18.5633 -0.27203 23.4597 0.0340044 23.4597 0.0340044C23.4597 0.0340044 18.2573 12.8872 15.8091 13.4992C13.3608 14.1113 10.3216 13.5535 9.38247 15.0294C7.91934 17.3286 9.6885 14.1113 14.891 14.4173C15.197 14.4353 13.4621 16.4252 12.1367 17.1716C10.7474 17.9539 9.8415 16.8655 9.07643 17.7836C8.31135 18.7017 10.3005 17.4776 11.2186 18.0896Z" fill="white"/>
</svg>
